<svg xmlns="http://www.w3.org/2000/svg" width="459.38" height="122.34" viewBox="0 0 229.69 61.17"><path fill="#263470" d="M50.47,76.46A30.59,30.59,0,1,1,81.05,45.87,30.58,30.58,0,0,1,50.47,76.46m0-59.73A29.15,29.15,0,1,0,79.61,45.87,29.15,29.15,0,0,0,50.47,16.73M76.38,54.59s-.06.07-.15,0-.1-.06-.09-.1a23.5,23.5,0,0,0,1-6.52c0-3.74-1.52-6-3.47-6a2,2,0,0,0-2,2.12c0,2.29,2.79,2.46,2.79,7.46a19.66,19.66,0,0,1-1.1,6.1c-3.13,10.59-13.13,15.5-22.87,15.5a24.24,24.24,0,0,1-8.64-1.35.15.15,0,0,1,0-.17s.09-.1.13-.08a21.19,21.19,0,0,0,6.51,1c3.73,0,5.93-1.53,5.93-3.39a2.09,2.09,0,0,0-2.11-2.11c-2.29,0-2.46,2.87-7.38,2.87a20.2,20.2,0,0,1-6.18-1.1c-10.51-3.22-15.51-13.13-15.5-23a27.75,27.75,0,0,1,1.37-8.63s.07-.05.15,0,.09.09.08.11a22.51,22.51,0,0,0-1,6.52c0,3.73,1.52,5.93,3.48,5.93a2,2,0,0,0,2-2c0-2.29-2.8-2.54-2.8-7.46a20.1,20.1,0,0,1,1.1-6.18c3.22-10.51,13.14-15.43,22.88-15.51A25.69,25.69,0,0,1,59.11,20a.15.15,0,0,1,0,.15c0,.09-.08.09-.11.09a19,19,0,0,0-6.52-1.08c-3.64,0-5.93,1.52-5.93,3.47a2,2,0,0,0,2.12,2c2.29,0,2.46-2.79,7.37-2.79A20.15,20.15,0,0,1,62.24,23c10.59,3.22,15.41,13.21,15.51,22.87a26.35,26.35,0,0,1-1.37,8.72M61.82,47.32A4.85,4.85,0,0,0,56.74,52c0,2.12,1.26,3.81,3,3.81a1.09,1.09,0,0,0,1.19-1.1c0-1.1-1.46-1.37-1.35-3a2.06,2.06,0,0,1,2.11-1.81c2,0,3,2,3,4a5.2,5.2,0,0,1-5.1,5.32c-3.56,0-5.84-3.39-5.84-7,0-5.42,3.56-7.54,5.42-8,0,0,4.87.87,4.72-1.27-.07-.94-1.47-1.3-2.48-1.34a6.73,6.73,0,0,0-2.26.36,2.74,2.74,0,0,1-1.25-1.56c3.47-2.63,5.93-5.17,5.93-8.05a2.78,2.78,0,0,0-3-2.88c-3.47,0-6.1,4.41-6.1,8.39a7.27,7.27,0,0,0,.17,1.95,80.74,80.74,0,0,1-6.8,4.39,14.76,14.76,0,0,1,.32-2.57c1-1.1,2.42-2.76,2.42-4a1,1,0,0,0-1-1.1c-1.69,0-3,2.54-3.3,4.32-.77.94-2.29,2.12-3.56,2.12a1.55,1.55,0,0,1-1.45-1.27c3.23-1.1,7.21-5.51,7.21-9.49a2.57,2.57,0,0,0-2.88-2.71c-3.82,0-7,5.68-7,10.08-1.36,0-1.87-1.44-1.87-2.54a16.63,16.63,0,0,1,.43-2.54.68.68,0,0,0-.68-.76c-1.27,0-2,1.69-2,3.64a4.45,4.45,0,0,0,4.24,4.58,3.87,3.87,0,0,0,3.56,3.13,5.23,5.23,0,0,0,3.39-1.18c-.09.59-.17,1.1-.26,1.61-3.72,2-6.44,3.3-8.89,5.5a8.82,8.82,0,0,0-3,6,4.66,4.66,0,0,0,4.91,4.91c3.9,0,6.87-3.13,8.3-7.45a33.5,33.5,0,0,0,1.12-7.71,75.32,75.32,0,0,0,7.78-4.92,3.33,3.33,0,0,0,.85,1,10.56,10.56,0,0,0-6,9.74c0,4.41,3,9.32,8.81,9.32A8.07,8.07,0,0,0,67.5,54c0-3.47-2-6.69-5.68-6.69M38.52,59.18a1.93,1.93,0,0,1-2.11-2.11c0-3.65,5.05-7.12,8.86-9-.68,5.09-2.4,10.9-6.75,11.1m2.8-20c0-2.8,2.76-8.11,4.45-7.55,2,.67-1.66,6-4.45,7.55m16-1.27c0-3.48,2.35-6.85,3.63-6.21,1.47.73-1.09,4-3.63,6.21M96.68,45.91v0a5.81,5.81,0,0,1,6-5.82,6.57,6.57,0,0,1,4.55,1.63l-1.83,2.19a4,4,0,0,0-2.7-1,2.94,2.94,0,0,0-2.87,3.07v0a3,3,0,0,0,3,3.11,3.14,3.14,0,0,0,1.8-.47V47.2h-2.21V44.93h5.15v5a7.54,7.54,0,0,1-4.86,1.73A5.76,5.76,0,0,1,96.68,45.91ZM111,40.27h9v2.64H114v1.7h5.38v2.45H114v1.78h6v2.64H111ZM133.14,40.19h3l4.77,11.29h-3.33l-.82-2h-4.32l-.8,2h-3.27Zm2.72,6.87-1.24-3.19-1.27,3.19ZM143.59,40.27h4.8c2.83,0,4.66,1.46,4.66,3.94v0c0,2.64-2,4-4.82,4h-1.54v3.21h-3.1Zm4.58,5.57c1.1,0,1.77-.57,1.77-1.45v0c0-1-.67-1.47-1.79-1.47h-1.46v3ZM156,40.27h4.8c2.83,0,4.66,1.46,4.66,3.94v0c0,2.64-2,4-4.82,4h-1.54v3.21H156Zm4.58,5.57c1.1,0,1.77-.57,1.77-1.45v0c0-1-.67-1.47-1.79-1.47h-1.46v3ZM168.32,40.27h3.11v8.49h5.43v2.72h-8.54ZM179.85,40.27H183V51.48h-3.12ZM190.49,40.19h3l4.77,11.29h-3.33l-.82-2h-4.32l-.8,2h-3.27Zm2.72,6.87L192,43.87l-1.27,3.19ZM200.93,40.27h2.9l4.61,5.92V40.27h3.07V51.48h-2.72L204,45.33v6.15h-3.08ZM214.71,45.91v0a5.75,5.75,0,0,1,5.91-5.82,5.5,5.5,0,0,1,4.75,2.33L223,44.19a3,3,0,0,0-2.45-1.31,2.77,2.77,0,0,0-2.67,3v0a2.77,2.77,0,0,0,2.67,3,3.07,3.07,0,0,0,2.53-1.36l2.34,1.66a5.9,5.9,0,0,1-10.74-3.26ZM228.37,40.27h9v2.64h-5.93v1.7h5.37v2.45h-5.37v1.78h6v2.64h-9.09ZM239.8,49.81l1.73-2.06a5.74,5.74,0,0,0,3.63,1.34c.83,0,1.28-.29,1.28-.77v0c0-.46-.37-.72-1.89-1.07-2.39-.54-4.23-1.22-4.23-3.52v0c0-2.09,1.65-3.59,4.34-3.59a7,7,0,0,1,4.61,1.49l-1.55,2.19a5.62,5.62,0,0,0-3.14-1.1c-.75,0-1.12.32-1.12.72v0c0,.51.39.74,1.94,1.09,2.57.56,4.18,1.39,4.18,3.49v0c0,2.29-1.81,3.65-4.53,3.65A7.82,7.82,0,0,1,239.8,49.81Z" transform="translate(-19.88 -15.29)"/></svg>